<svg xmlns="http://www.w3.org/2000/svg" viewBox="0 0 1280 360" width="1280" height="360" role="img" aria-label="anygate banner">
  <defs>
    <linearGradient id="bg" x1="0" y1="0" x2="1" y2="1">
      <stop offset="0" stop-color="#0b0717"/>
      <stop offset="1" stop-color="#051018"/>
    </linearGradient>
    <linearGradient id="g" x1="0" y1="0" x2="1" y2="1">
      <stop offset="0" stop-color="#a855f7"/>
      <stop offset="0.5" stop-color="#6366f1"/>
      <stop offset="1" stop-color="#22d3ee"/>
    </linearGradient>
    <radialGradient id="glow" cx="0.18" cy="0.5" r="0.6">
      <stop offset="0" stop-color="#22d3ee" stop-opacity="0.22"/>
      <stop offset="1" stop-color="#22d3ee" stop-opacity="0"/>
    </radialGradient>
  </defs>
  <rect width="1280" height="360" fill="url(#bg)"/>
  <ellipse cx="250" cy="180" rx="320" ry="240" fill="url(#glow)"/>
  <g stroke="url(#g)" stroke-width="2" fill="none" opacity="0.22">
    <path d="M40 70 C 320 30, 540 330, 1240 310"/>
    <path d="M40 300 C 340 340, 560 40, 1240 90"/>
  </g>
  <g transform="translate(96,52) scale(0.5)">
    <circle cx="256" cy="220" r="190" fill="url(#glow)"/>
    <g fill="none" stroke="url(#g)" stroke-width="28" stroke-linecap="round" stroke-linejoin="round">
      <path d="M152 372 V252 A104 104 0 0 1 360 252 V372"/>
      <path d="M152 372 H136"/>
      <path d="M360 372 H376"/>
      <path d="M104 300 H400"/>
    </g>
    <path d="M400 300 l-40 -22 v44 z" fill="url(#g)"/>
    <circle cx="152" cy="252" r="18" fill="url(#g)"/>
    <circle cx="360" cy="252" r="18" fill="url(#g)"/>
  </g>
  <text x="368" y="176" font-family="Inter, 'Segoe UI', Helvetica, Arial, sans-serif" font-size="104" font-weight="800" fill="#f5f7ff" letter-spacing="-3">anygate</text>
  <text x="372" y="246" font-family="Inter, 'Segoe UI', Helvetica, Arial, sans-serif" font-size="36" font-weight="500" fill="#9fb0c3">Route any model into any coding agent</text>
</svg>
